<mxfile host="app.diagrams.net" modified="2020-11-27T07:51:25.650Z" agent="5.0 (X11)" etag="7bpeHMRMpOyCmPluFr-U" version="13.10.4" type="github">
  <diagram id="gsTaq-lC7e8fo5LnqLd6" name="Page-1">
    <mxGraphModel dx="1022" dy="720" grid="1" gridSize="10" guides="1" tooltips="1" connect="1" arrows="1" fold="1" page="1" pageScale="1" pageWidth="850" pageHeight="1100" math="0" shadow="0">
      <root>
        <mxCell id="0" />
        <mxCell id="1" parent="0" />
        <mxCell id="9GFyErXqcewZroUCBzi0-1" style="edgeStyle=orthogonalEdgeStyle;rounded=0;orthogonalLoop=1;jettySize=auto;html=1;exitX=0.5;exitY=1;exitDx=0;exitDy=0;entryX=0.5;entryY=0;entryDx=0;entryDy=0;" edge="1" parent="1" source="9GFyErXqcewZroUCBzi0-2" target="9GFyErXqcewZroUCBzi0-4">
          <mxGeometry relative="1" as="geometry" />
        </mxCell>
        <mxCell id="9GFyErXqcewZroUCBzi0-2" value="" style="ellipse;fillColor=#000000;strokeColor=none;" vertex="1" parent="1">
          <mxGeometry x="280" y="30" width="30" height="30" as="geometry" />
        </mxCell>
        <mxCell id="9GFyErXqcewZroUCBzi0-3" style="edgeStyle=orthogonalEdgeStyle;rounded=0;orthogonalLoop=1;jettySize=auto;html=1;exitX=0.5;exitY=1;exitDx=0;exitDy=0;entryX=0.5;entryY=0;entryDx=0;entryDy=0;" edge="1" parent="1" source="9GFyErXqcewZroUCBzi0-4" target="9GFyErXqcewZroUCBzi0-7">
          <mxGeometry relative="1" as="geometry" />
        </mxCell>
        <mxCell id="9GFyErXqcewZroUCBzi0-4" value="Admin Login" style="rounded=0;whiteSpace=wrap;html=1;" vertex="1" parent="1">
          <mxGeometry x="232.5" y="100" width="125" height="30" as="geometry" />
        </mxCell>
        <mxCell id="9GFyErXqcewZroUCBzi0-5" style="edgeStyle=orthogonalEdgeStyle;rounded=0;orthogonalLoop=1;jettySize=auto;html=1;" edge="1" parent="1" source="9GFyErXqcewZroUCBzi0-7" target="9GFyErXqcewZroUCBzi0-9">
          <mxGeometry relative="1" as="geometry" />
        </mxCell>
        <mxCell id="9GFyErXqcewZroUCBzi0-6" style="edgeStyle=orthogonalEdgeStyle;rounded=0;orthogonalLoop=1;jettySize=auto;html=1;exitX=0.5;exitY=1;exitDx=0;exitDy=0;entryX=0.5;entryY=0;entryDx=0;entryDy=0;" edge="1" parent="1" source="9GFyErXqcewZroUCBzi0-7" target="9GFyErXqcewZroUCBzi0-10">
          <mxGeometry relative="1" as="geometry" />
        </mxCell>
        <mxCell id="9GFyErXqcewZroUCBzi0-7" value="" style="rhombus;whiteSpace=wrap;html=1;" vertex="1" parent="1">
          <mxGeometry x="255" y="160" width="80" height="80" as="geometry" />
        </mxCell>
        <mxCell id="9GFyErXqcewZroUCBzi0-8" style="edgeStyle=orthogonalEdgeStyle;rounded=0;orthogonalLoop=1;jettySize=auto;html=1;exitX=1;exitY=0.5;exitDx=0;exitDy=0;entryX=0;entryY=0.5;entryDx=0;entryDy=0;" edge="1" parent="1" source="9GFyErXqcewZroUCBzi0-9" target="9GFyErXqcewZroUCBzi0-11">
          <mxGeometry relative="1" as="geometry" />
        </mxCell>
        <mxCell id="9GFyErXqcewZroUCBzi0-9" value="display Invalid Credentials" style="rounded=0;whiteSpace=wrap;html=1;" vertex="1" parent="1">
          <mxGeometry x="450" y="185" width="230" height="30" as="geometry" />
        </mxCell>
        <mxCell id="9GFyErXqcewZroUCBzi0-21" style="edgeStyle=orthogonalEdgeStyle;rounded=0;orthogonalLoop=1;jettySize=auto;html=1;exitX=0.5;exitY=1;exitDx=0;exitDy=0;entryX=0.5;entryY=0;entryDx=0;entryDy=0;" edge="1" parent="1" source="9GFyErXqcewZroUCBzi0-10" target="9GFyErXqcewZroUCBzi0-16">
          <mxGeometry relative="1" as="geometry">
            <Array as="points">
              <mxPoint x="295" y="310" />
              <mxPoint x="103" y="310" />
            </Array>
          </mxGeometry>
        </mxCell>
        <mxCell id="9GFyErXqcewZroUCBzi0-22" style="edgeStyle=orthogonalEdgeStyle;rounded=0;orthogonalLoop=1;jettySize=auto;html=1;entryX=0.432;entryY=0.067;entryDx=0;entryDy=0;entryPerimeter=0;" edge="1" parent="1" source="9GFyErXqcewZroUCBzi0-10" target="9GFyErXqcewZroUCBzi0-14">
          <mxGeometry relative="1" as="geometry">
            <Array as="points">
              <mxPoint x="295" y="310" />
              <mxPoint x="479" y="310" />
            </Array>
          </mxGeometry>
        </mxCell>
        <mxCell id="9GFyErXqcewZroUCBzi0-23" style="edgeStyle=orthogonalEdgeStyle;rounded=0;orthogonalLoop=1;jettySize=auto;html=1;" edge="1" parent="1" source="9GFyErXqcewZroUCBzi0-10" target="9GFyErXqcewZroUCBzi0-15">
          <mxGeometry relative="1" as="geometry" />
        </mxCell>
        <mxCell id="9GFyErXqcewZroUCBzi0-10" value="Go to homepage" style="rounded=0;whiteSpace=wrap;html=1;" vertex="1" parent="1">
          <mxGeometry x="232.5" y="270" width="125" height="30" as="geometry" />
        </mxCell>
        <mxCell id="9GFyErXqcewZroUCBzi0-11" value="" style="ellipse;html=1;shape=endState;fillColor=#000000;strokeColor=#ff0000;" vertex="1" parent="1">
          <mxGeometry x="720" y="185" width="30" height="30" as="geometry" />
        </mxCell>
        <mxCell id="9GFyErXqcewZroUCBzi0-12" value="Invalid Credentials" style="text;html=1;align=center;verticalAlign=middle;resizable=0;points=[];autosize=1;" vertex="1" parent="1">
          <mxGeometry x="332.5" y="180" width="110" height="20" as="geometry" />
        </mxCell>
        <mxCell id="9GFyErXqcewZroUCBzi0-13" value="Valid Credentials" style="text;html=1;align=center;verticalAlign=middle;resizable=0;points=[];autosize=1;" vertex="1" parent="1">
          <mxGeometry x="295" y="240" width="110" height="20" as="geometry" />
        </mxCell>
        <mxCell id="9GFyErXqcewZroUCBzi0-14" value="Delete Movie" style="rounded=0;whiteSpace=wrap;html=1;" vertex="1" parent="1">
          <mxGeometry x="425" y="330" width="125" height="30" as="geometry" />
        </mxCell>
        <mxCell id="9GFyErXqcewZroUCBzi0-15" value="Update movie" style="rounded=0;whiteSpace=wrap;html=1;" vertex="1" parent="1">
          <mxGeometry x="232.5" y="330" width="125" height="30" as="geometry" />
        </mxCell>
        <mxCell id="9GFyErXqcewZroUCBzi0-24" style="edgeStyle=orthogonalEdgeStyle;rounded=0;orthogonalLoop=1;jettySize=auto;html=1;exitX=0.5;exitY=1;exitDx=0;exitDy=0;entryX=0.5;entryY=0;entryDx=0;entryDy=0;" edge="1" parent="1" source="9GFyErXqcewZroUCBzi0-16" target="9GFyErXqcewZroUCBzi0-17">
          <mxGeometry relative="1" as="geometry" />
        </mxCell>
        <mxCell id="9GFyErXqcewZroUCBzi0-16" value="Add Movie" style="rounded=0;whiteSpace=wrap;html=1;" vertex="1" parent="1">
          <mxGeometry x="40" y="330" width="125" height="30" as="geometry" />
        </mxCell>
        <mxCell id="9GFyErXqcewZroUCBzi0-17" value="logout" style="rounded=0;whiteSpace=wrap;html=1;" vertex="1" parent="1">
          <mxGeometry x="295" y="430" width="125" height="30" as="geometry" />
        </mxCell>
        <mxCell id="9GFyErXqcewZroUCBzi0-29" style="edgeStyle=orthogonalEdgeStyle;rounded=0;orthogonalLoop=1;jettySize=auto;html=1;exitX=0.5;exitY=1;exitDx=0;exitDy=0;entryX=0.688;entryY=0;entryDx=0;entryDy=0;entryPerimeter=0;" edge="1" parent="1" source="9GFyErXqcewZroUCBzi0-18" target="9GFyErXqcewZroUCBzi0-19">
          <mxGeometry relative="1" as="geometry" />
        </mxCell>
        <mxCell id="9GFyErXqcewZroUCBzi0-18" value="Go to homepage" style="rounded=0;whiteSpace=wrap;html=1;" vertex="1" parent="1">
          <mxGeometry x="155" y="430" width="125" height="30" as="geometry" />
        </mxCell>
        <mxCell id="9GFyErXqcewZroUCBzi0-30" style="edgeStyle=orthogonalEdgeStyle;rounded=0;orthogonalLoop=1;jettySize=auto;html=1;exitX=1;exitY=0.25;exitDx=0;exitDy=0;entryX=0.5;entryY=0;entryDx=0;entryDy=0;" edge="1" parent="1" source="9GFyErXqcewZroUCBzi0-19" target="9GFyErXqcewZroUCBzi0-20">
          <mxGeometry relative="1" as="geometry" />
        </mxCell>
        <mxCell id="9GFyErXqcewZroUCBzi0-19" value="Logout" style="rounded=0;whiteSpace=wrap;html=1;" vertex="1" parent="1">
          <mxGeometry x="130" y="490" width="125" height="30" as="geometry" />
        </mxCell>
        <mxCell id="9GFyErXqcewZroUCBzi0-20" value="" style="ellipse;html=1;shape=endState;fillColor=#000000;strokeColor=#ff0000;" vertex="1" parent="1">
          <mxGeometry x="280" y="550" width="30" height="30" as="geometry" />
        </mxCell>
        <mxCell id="9GFyErXqcewZroUCBzi0-26" value="" style="endArrow=none;html=1;" edge="1" parent="1">
          <mxGeometry width="50" height="50" relative="1" as="geometry">
            <mxPoint x="358" y="396" as="sourcePoint" />
            <mxPoint x="486" y="360" as="targetPoint" />
            <Array as="points">
              <mxPoint x="486" y="396" />
            </Array>
          </mxGeometry>
        </mxCell>
        <mxCell id="9GFyErXqcewZroUCBzi0-27" value="" style="endArrow=none;html=1;entryX=0.444;entryY=1.067;entryDx=0;entryDy=0;entryPerimeter=0;" edge="1" parent="1">
          <mxGeometry width="50" height="50" relative="1" as="geometry">
            <mxPoint x="288" y="397" as="sourcePoint" />
            <mxPoint x="288" y="359.01" as="targetPoint" />
          </mxGeometry>
        </mxCell>
        <mxCell id="9GFyErXqcewZroUCBzi0-28" value="" style="endArrow=classic;html=1;entryX=0.5;entryY=0;entryDx=0;entryDy=0;" edge="1" parent="1" target="9GFyErXqcewZroUCBzi0-18">
          <mxGeometry width="50" height="50" relative="1" as="geometry">
            <mxPoint x="360" y="410" as="sourcePoint" />
            <mxPoint x="190" y="400" as="targetPoint" />
            <Array as="points">
              <mxPoint x="218" y="410" />
            </Array>
          </mxGeometry>
        </mxCell>
        <mxCell id="9GFyErXqcewZroUCBzi0-31" value="" style="endArrow=none;html=1;entryX=0.5;entryY=1;entryDx=0;entryDy=0;" edge="1" parent="1">
          <mxGeometry width="50" height="50" relative="1" as="geometry">
            <mxPoint x="295" y="498" as="sourcePoint" />
            <mxPoint x="352.5" y="458" as="targetPoint" />
            <Array as="points">
              <mxPoint x="353" y="498" />
            </Array>
          </mxGeometry>
        </mxCell>
      </root>
    </mxGraphModel>
  </diagram>
</mxfile>
